<?xml version="1.0" encoding="utf-8"?>
<!DOCTYPE svg PUBLIC "-//W3C//DTD SVG 1.1//EN" "http://www.w3.org/Graphics/SVG/1.1/DTD/svg11.dtd">
<!-- Creator: CorelDRAW --><svg height="900px" style="shape-rendering:geometricPrecision; text-rendering:geometricPrecision; image-rendering:optimizeQuality; fill-rule:evenodd; clip-rule:evenodd" version="1.1" viewBox="0 0 886.7 886.7" width="900px" xml:space="preserve" xmlns="http://www.w3.org/2000/svg" xmlns:xlink="http://www.w3.org/1999/xlink" xmlns:xodm="http://www.corel.com/coreldraw/odm/2003">
<defs>

</defs>
<g id="drawing">
<metadata id="CorelCorpID_0Corel-Layer"/>
<g id="_2038615225648">
<circle cx="443.35" cy="443.35" fill="#9DD1CC" r="443.35"/>
<path d="M875.79 345.26c6.52,28.88 10.22,58.82 10.8,89.53l-381.82 0 -11.52 -9.72 66.06 -39.44c18.05,-18.64 89.57,-65.68 138.1,-14.81 22.71,-16.31 45.21,-31.73 66.46,-42.18 17.36,-8.19 36.71,-12.16 59.9,-7.95 19.57,4.68 37.55,11.87 52.02,24.57z" fill="#87AC68"/>
<path d="M883.76 392.29c1.6,13.98 2.55,28.16 2.83,42.5l-109.96 0c17.35,-23.48 39.15,-40.59 70.04,-44.68 12.17,-0.91 24.47,-0.7 37.09,2.18z" fill="#508A5C"/>
<path d="M69.75 682.16c-44.15,-68.93 -69.75,-150.88 -69.75,-238.81 0,-2.86 0.05,-5.71 0.11,-8.56l375.92 0 -306.28 247.37z" fill="#5D9466"/>
<path d="M798.99 708.11c-80.83,108.39 -210.03,178.59 -355.64,178.59 -145.61,0 -274.81,-70.2 -355.64,-178.59l309.53 -283.04 92.22 0 309.53 283.04z" fill="#3A6D69"/>
<path d="M886.59 434.79c0.05,2.85 0.11,5.7 0.11,8.56 0,87.93 -25.6,169.88 -69.75,238.81l-306.28 -247.37 375.92 0z" fill="#5D9466"/>
<g>
<path d="M383.49 741.37l119.72 0 108.16 0c15.87,0.55 23.24,-6.55 24.35,-19.28l0 -74.07c-0.34,-12.51 -5.69,-25.02 -14.88,-37.54l16.91 0c9.16,-3 12.31,-8.42 11.5,-16.23 -2.37,-10.25 -7.34,-15.3 -14.88,-15.22l-20.29 0c-6.54,2.2 -9.86,6.01 -10.49,11.16l-39.91 -77.12c-9.97,-11.7 -22.9,-18.69 -40.25,-18.6l-51.45 0 -57.27 0 -51.44 0c-17.36,-0.09 -30.28,6.9 -40.25,18.6l-39.91 77.12c-0.64,-5.15 -3.95,-8.96 -10.49,-11.16l-20.29 0c-7.54,-0.08 -12.51,4.97 -14.88,15.22 -0.82,7.81 2.34,13.23 11.5,16.23l16.91 0c-9.19,12.52 -14.55,25.03 -14.88,37.54l0 74.07c1.11,12.73 8.48,19.83 24.35,19.28l108.16 0z" fill="#103A3D"/>
<path d="M385.64 597.11l115.42 0 64.46 0c12.88,0.52 15.89,-5.96 11.06,-17.98l-25.45 -50.35c-5.08,-6.86 -12.43,-10.48 -22.68,-9.96l-42.06 0 -86.09 0 -42.05 0c-10.25,-0.52 -17.6,3.1 -22.68,9.96l-25.46 50.35c-4.82,12.02 -1.81,18.5 11.07,17.98l64.46 0z" fill="#387978"/>
<rect fill="red" height="33.75" rx="10.14" ry="10.32" stroke="black" stroke-miterlimit="22.9256" stroke-width="0.89" width="70.14" x="279.09" y="644.33"/>
<rect fill="red" height="33.75" rx="10.14" ry="10.32" stroke="black" stroke-miterlimit="22.9256" stroke-width="0.89" width="70.14" x="537.47" y="644.33"/>
<rect fill="#2B5D5F" height="46.43" rx="6.23" ry="6.23" width="119.53" x="383.59" y="648.8"/>
<path d="M546.09 756.41l-205.48 0 -18.33 -0.11 0 21.22c0.36,17.7 -13.97,28.78 -31.4,27.97 -16.96,-0.31 -30.03,-15.58 -29.13,-30.08l0 -36.16c3.56,1.58 8.06,2.31 13.58,2.12l108.16 0 119.72 0 108.16 0c5.52,0.19 10.02,-0.54 13.58,-2.12l0 36.16c0.9,14.5 -12.17,29.77 -29.13,30.08 -17.43,0.81 -31.77,-10.27 -31.4,-27.97l0 -21.22 -18.33 0.11z" fill="#0C2D2F"/>
</g>
<path d="M798.99 708.11c6.28,-8.43 12.28,-17.08 17.96,-25.95l-318.31 -257.09 -9.18 0 309.53 283.04z" fill="#FDF6E0"/>
<path d="M0.11 434.79c0.35,-18.69 1.87,-37.1 4.47,-55.15 12.98,-12.78 29.23,-21.63 49.61,-25.54 30.57,-4.65 60.29,-2.78 88.63,9.6 32.36,12.15 64.2,24.88 93.59,39.99 31.07,15.86 65.29,23.3 103.03,21.38l54.01 0 -11.52 9.72 -381.82 0z" fill="#87AC68"/>
<polygon fill="#FDF6E0" points="154.68,531.25 183.69,531.25 183.69,210.57 232.05,210.57 234.72,182.22 154.68,182.22 "/>
<path d="M87.71 708.11c-6.28,-8.43 -12.28,-17.08 -17.96,-25.95l318.31 -257.09 9.18 0 -309.53 283.04z" fill="#FDF6E0"/>
<path d="M769.48 239.04l-246.2 -0.24c-1.08,-5.56 -1.21,-12.18 1.84,-20.03 7.6,-13.2 17.31,-19.62 29.48,-18.2 3.5,-9.98 8.74,-17.84 16.35,-22.8 11.21,-5.49 21.95,-6.41 32.24,-2.76 8.74,-18.62 22.95,-31.45 47.68,-33.16 23.7,1.6 39.25,13.31 43.76,38.69 10.82,-4.2 21.87,-5.25 36.38,2.76 9.17,6.46 14.8,15.27 14.74,27.87 16.67,3.03 24.26,12.55 23.73,27.87z" fill="#FDF6E0"/>
</g>
<g id="_2038615228528">
<circle cx="346.94" cy="201.29" fill="#DF5E42" r="122.97"/>
<rect fill="#FDF6E0" height="49.47" rx="6.34" ry="6.34" width="184.74" x="254.57" y="176.55"/>
</g>
</g>
</svg>