<?xml version="1.0" encoding="utf-8"?>
<!DOCTYPE svg PUBLIC "-//W3C//DTD SVG 1.0//EN" "http://www.w3.org/TR/2001/REC-SVG-20010904/DTD/svg10.dtd">
<!-- Creator: CorelDRAW --><svg height="300px" style="shape-rendering:geometricPrecision; text-rendering:geometricPrecision; image-rendering:optimizeQuality; fill-rule:evenodd; clip-rule:evenodd" version="1.0" viewBox="0 0 295.57 295.57" width="300px" xml:space="preserve" xmlns="http://www.w3.org/2000/svg" xmlns:xlink="http://www.w3.org/1999/xlink" xmlns:xodm="http://www.corel.com/coreldraw/odm/2003">
<defs>

</defs>
<g id="drawing">
<metadata id="CorelCorpID_0Corel-Layer"/>
<g id="_2159818299712">
<circle cx="147.78" cy="147.78" fill="#9DD1CC" r="147.78"/>
<path d="M291.93 115.09c2.17,9.62 3.41,19.6 3.6,29.84l-127.27 0 -3.84 -3.24 22.02 -13.15c6.01,-6.21 29.85,-21.89 46.03,-4.93 7.57,-5.44 15.07,-10.58 22.15,-14.06 5.79,-2.73 12.24,-4.06 19.97,-2.65 6.52,1.56 12.52,3.95 17.34,8.19z" fill="#87AC68"/>
<path d="M294.59 130.76c0.53,4.66 0.85,9.39 0.94,14.17l-36.65 0c5.78,-7.83 13.05,-13.53 23.34,-14.89 4.06,-0.31 8.16,-0.24 12.37,0.72z" fill="#508A5C"/>
<path d="M23.25 227.39c-14.72,-22.98 -23.25,-50.3 -23.25,-79.61 0,-0.95 0.02,-1.9 0.04,-2.85l125.3 0 -102.09 82.46z" fill="#5D9466"/>
<path d="M266.33 236.04c-26.94,36.13 -70.01,59.53 -118.55,59.53 -48.53,0 -91.6,-23.4 -118.54,-59.53l103.17 -94.35 30.74 0 103.18 94.35z" fill="#3A6D69"/>
<path d="M295.53 144.93c0.02,0.95 0.04,1.9 0.04,2.85 0,29.31 -8.54,56.63 -23.25,79.61l-102.1 -82.46 125.31 0z" fill="#5D9466"/>
<g>
<path d="M127.83 247.12l39.91 0 36.05 0c5.29,0.19 7.75,-2.18 8.12,-6.42l0 -24.69c-0.12,-4.17 -1.9,-8.34 -4.96,-12.52l5.63 0c3.06,-1 4.11,-2.8 3.84,-5.41 -0.79,-3.41 -2.45,-5.1 -4.96,-5.07l-6.77 0c-2.18,0.73 -3.28,2 -3.49,3.72l-13.31 -25.71c-3.32,-3.9 -7.63,-6.23 -13.41,-6.2l-17.15 0 -19.09 0 -17.15 0c-5.79,-0.03 -10.09,2.3 -13.42,6.2l-13.3 25.71c-0.21,-1.72 -1.32,-2.99 -3.5,-3.72l-6.76 0c-2.51,-0.03 -4.17,1.66 -4.96,5.07 -0.27,2.61 0.78,4.41 3.83,5.41l5.64 0c-3.06,4.18 -4.85,8.35 -4.96,12.52l0 24.69c0.37,4.24 2.83,6.61 8.12,6.42l36.05 0z" fill="#103A3D"/>
<path d="M128.55 199.04l38.47 0 21.49 0c4.29,0.17 5.29,-1.99 3.68,-6l-8.48 -16.78c-1.69,-2.29 -4.14,-3.49 -7.56,-3.32l-14.02 0 -28.7 0 -14.01 0c-3.42,-0.17 -5.87,1.03 -7.56,3.32l-8.49 16.78c-1.61,4.01 -0.6,6.17 3.69,6l21.49 0z" fill="#387978"/>
<rect fill="red" height="11.25" rx="3.38" ry="3.44" stroke="black" stroke-miterlimit="22.9256" stroke-width="0.3" width="23.38" x="93.03" y="214.78"/>
<rect fill="red" height="11.25" rx="3.38" ry="3.44" stroke="black" stroke-miterlimit="22.9256" stroke-width="0.3" width="23.38" x="179.16" y="214.78"/>
<rect fill="#2B5D5F" height="15.48" rx="2.08" ry="2.08" width="39.84" x="127.86" y="216.27"/>
<path d="M182.03 252.14l-68.49 0 -6.11 -0.04 0 7.07c0.12,5.9 -4.66,9.6 -10.47,9.33 -5.65,-0.11 -10.01,-5.2 -9.71,-10.03l0 -12.05c1.19,0.52 2.69,0.77 4.53,0.7l36.05 0 39.91 0 36.05 0c1.84,0.07 3.34,-0.18 4.53,-0.7l0 12.05c0.3,4.83 -4.06,9.92 -9.71,10.03 -5.81,0.27 -10.59,-3.43 -10.47,-9.33l0 -7.07 -6.11 0.04z" fill="#0C2D2F"/>
</g>
<path d="M266.33 236.04c2.09,-2.81 4.09,-5.7 5.99,-8.65l-106.11 -85.7 -3.06 0 103.18 94.35z" fill="#FDF6E0"/>
<path d="M0.04 144.93c0.11,-6.23 0.62,-12.37 1.49,-18.38 4.32,-4.26 9.74,-7.21 16.53,-8.52 10.19,-1.55 20.1,-0.92 29.55,3.2 10.78,4.05 21.4,8.3 31.19,13.33 10.36,5.29 21.77,7.77 34.35,7.13l18 0 -3.84 3.24 -127.27 0z" fill="#87AC68"/>
<polygon fill="#FDF6E0" points="51.56,177.08 61.23,177.08 61.23,70.19 77.35,70.19 78.24,60.74 51.56,60.74 "/>
<path d="M29.24 236.04c-2.1,-2.81 -4.1,-5.7 -5.99,-8.65l106.1 -85.7 3.06 0 -103.17 94.35z" fill="#FDF6E0"/>
<path d="M256.49 79.68l-82.06 -0.08c-0.36,-1.85 -0.41,-4.06 0.61,-6.68 2.53,-4.4 5.77,-6.54 9.83,-6.06 1.16,-3.33 2.91,-5.95 5.45,-7.6 3.73,-1.83 7.31,-2.14 10.74,-0.92 2.92,-6.21 7.65,-10.49 15.9,-11.06 7.9,0.54 13.08,4.44 14.58,12.9 3.61,-1.4 7.29,-1.75 12.13,0.92 3.06,2.15 4.93,5.09 4.91,9.29 5.56,1.01 8.09,4.18 7.91,9.29z" fill="#FDF6E0"/>
</g>
<g id="_2159818300672">
<rect fill="#176E94" height="88.43" rx="5.66" ry="5.66" width="82.9" x="73.21" y="24.53"/>
<path d="M110.82 104.53l0.96 -34.96 -11.43 0 -6.12 34.96 16.59 0zm1.32 -48.03l0.67 -24.3 -5.92 0 -4.25 24.3 9.5 0z" fill="#FDF6E0"/>
<polygon fill="#FDF6E0" points="132.44,65.28 133.43,70.89 140.1,70.89 139.18,65.28 148.33,65.28 148.33,60.03 121.54,60.03 107.76,60.03 80.98,60.03 80.98,65.28 90.12,65.28 89.2,70.89 95.88,70.89 96.86,65.28 "/>
<path d="M118.49 104.53l-0.97 -34.96 11.44 0 6.11 34.96 -16.58 0zm-1.33 -48.03l-0.67 -24.3 5.93 0 4.25 24.3 -9.51 0z" fill="#FDF6E0"/>
</g>
</g>
</svg>